<svg xmlns="http://www.w3.org/2000/svg" viewBox="0 0 160 160">
<rect width="160" height="160" rx="20" fill="#111"/><path d="M0 118L160 30V72L0 154Z" fill="#ffd21a"/>
<circle cx="80" cy="57" r="31" fill="#efc59e"/><path d="M27 27Q40 13 53 27L51 19Q40 8 29 19Z" fill="#3b2418"/>
<path d="M48 56Q80 73 112 56L106 93Q80 108 54 93Z" fill="#161616" stroke="#ffd21a" stroke-width="4"/>
<path d="M57 93L49 126M103 93L111 126M54 76L28 104M106 76L132 104" fill="none" stroke="#ffd21a" stroke-width="11" stroke-linecap="round"/>
<circle cx="69" cy="56" r="3" fill="#111"/><circle cx="91" cy="56" r="3" fill="#111"/>
<path d="M71 70Q80 76 89 70" fill="none" stroke="#111" stroke-width="3"/>
<text x="80" y="89" text-anchor="middle" font-family="Arial" font-size="13" font-weight="900" fill="#ffd21a">LW</text>
<path d="M125 124L151 103" stroke="#ffd21a" stroke-width="6" stroke-linecap="round"/>
<text x="148" y="22" text-anchor="end" font-family="Arial" font-size="17" font-weight="900" fill="#fff"></text>
</svg>